<svg width="216" height="29" viewBox="0 0 216 29" fill="none" xmlns="http://www.w3.org/2000/svg">
<path d="M11.25 28.44C9.19667 28.44 7.38333 28.0133 5.81 27.16C4.23667 26.3067 3.01 25.1067 2.13 23.56C1.25 21.9867 0.81 20.1733 0.81 18.12C0.81 16.0933 1.25 14.3067 2.13 12.76C3.01 11.1867 4.23667 9.97333 5.81 9.12C7.38333 8.24 9.18333 7.8 11.21 7.8C14.0367 7.8 16.5033 8.81333 18.61 10.84L16.29 13.32C15.6233 12.6533 14.85 12.1467 13.97 11.8C13.1167 11.4267 12.21 11.24 11.25 11.24C9.97 11.24 8.81 11.5333 7.77 12.12C6.75667 12.68 5.95667 13.48 5.37 14.52C4.81 15.56 4.53 16.76 4.53 18.12C4.53 20.1733 5.15667 21.84 6.41 23.12C7.66333 24.3733 9.27667 25 11.25 25C12.2633 25 13.2233 24.8133 14.13 24.44C15.0367 24.04 15.8233 23.4933 16.49 22.8L18.81 25.36C17.7433 26.4267 16.5833 27.2133 15.33 27.72C14.1033 28.2 12.7433 28.44 11.25 28.44ZM22.755 -1.90735e-06H26.475V10.8C28.1283 8.85333 30.355 7.88 33.155 7.88C35.7417 7.88 37.795 8.70667 39.315 10.36C40.8617 12.0133 41.635 14.24 41.635 17.04V28H37.915V17.28C37.915 15.3867 37.4483 13.92 36.515 12.88C35.5817 11.84 34.275 11.32 32.595 11.32C30.8083 11.32 29.3417 11.9067 28.195 13.08C27.0483 14.2267 26.475 15.6933 26.475 17.48V28H22.755V-1.90735e-06ZM55.69 28.44C53.77 28.44 52.0633 28 50.57 27.12C49.0767 26.24 47.9033 25.0267 47.05 23.48C46.2233 21.9067 45.81 20.12 45.81 18.12C45.81 16.12 46.2233 14.3467 47.05 12.8C47.9033 11.2267 49.0767 10 50.57 9.12C52.0633 8.24 53.77 7.8 55.69 7.8C57.29 7.8 58.7433 8.10667 60.05 8.72C61.3567 9.30667 62.41 10.12 63.21 11.16L63.25 8.24H66.53V28H63.25L63.21 25.08C62.41 26.12 61.3567 26.9467 60.05 27.56C58.7433 28.1467 57.29 28.44 55.69 28.44ZM49.53 18.12C49.53 19.4533 49.81 20.64 50.37 21.68C50.93 22.72 51.7167 23.5333 52.73 24.12C53.7433 24.7067 54.89 25 56.17 25C58.1167 25 59.7033 24.36 60.93 23.08C62.1833 21.8 62.81 20.1467 62.81 18.12C62.81 16.0933 62.1833 14.44 60.93 13.16C59.7033 11.88 58.1167 11.24 56.17 11.24C54.89 11.24 53.7433 11.5333 52.73 12.12C51.7167 12.7067 50.93 13.52 50.37 14.56C49.81 15.6 49.53 16.7867 49.53 18.12ZM80.8053 28.28C78.752 28.28 77.192 27.7067 76.1253 26.56C75.0853 25.3867 74.5653 23.68 74.5653 21.44V11.48H70.6853V8.24H74.5653V2.92L78.2453 2.52V8.24H84.2453V11.48H78.2453V21.44C78.2453 22.5867 78.4853 23.4533 78.9653 24.04C79.4453 24.6267 80.2053 24.92 81.2453 24.92C82.0453 24.92 82.9386 24.7067 83.9253 24.28L85.0053 27.36C83.6186 27.9733 82.2186 28.28 80.8053 28.28ZM98.5753 -1.90735e-06H102.295V10.8C103.949 8.85333 106.175 7.88 108.975 7.88C111.562 7.88 113.615 8.70667 115.135 10.36C116.682 12.0133 117.455 14.24 117.455 17.04V28H113.735V17.28C113.735 15.3867 113.269 13.92 112.335 12.88C111.402 11.84 110.095 11.32 108.415 11.32C106.629 11.32 105.162 11.9067 104.015 13.08C102.869 14.2267 102.295 15.6933 102.295 17.48V28H98.5753V-1.90735e-06ZM132.15 28.52C130.044 28.52 128.19 28.0933 126.59 27.24C125.017 26.3867 123.79 25.1733 122.91 23.6C122.057 22.0267 121.63 20.2 121.63 18.12C121.63 16.12 122.057 14.3467 122.91 12.8C123.764 11.2267 124.95 10.0133 126.47 9.16C127.99 8.28 129.75 7.84 131.75 7.84C134.924 7.84 137.404 8.76 139.19 10.6C140.977 12.44 141.87 14.9867 141.87 18.24C141.87 18.8267 141.857 19.28 141.83 19.6H125.47C125.657 21.3067 126.35 22.6533 127.55 23.64C128.777 24.6 130.337 25.08 132.23 25.08C133.43 25.08 134.577 24.8667 135.67 24.44C136.79 24.0133 137.644 23.4533 138.23 22.76L140.63 25.04C139.697 26.1333 138.47 26.9867 136.95 27.6C135.457 28.2133 133.857 28.52 132.15 28.52ZM138.31 16.44C138.15 14.84 137.497 13.56 136.35 12.6C135.204 11.64 133.71 11.16 131.87 11.16C130.137 11.16 128.71 11.6267 127.59 12.56C126.497 13.4667 125.804 14.76 125.51 16.44H138.31ZM154.713 28.44C152.793 28.44 151.087 28 149.593 27.12C148.1 26.24 146.927 25.0267 146.073 23.48C145.247 21.9067 144.833 20.12 144.833 18.12C144.833 16.12 145.247 14.3467 146.073 12.8C146.927 11.2267 148.1 10 149.593 9.12C151.087 8.24 152.793 7.8 154.713 7.8C156.313 7.8 157.767 8.10667 159.073 8.72C160.38 9.30667 161.433 10.12 162.233 11.16L162.273 8.24H165.553V28H162.273L162.233 25.08C161.433 26.12 160.38 26.9467 159.073 27.56C157.767 28.1467 156.313 28.44 154.713 28.44ZM148.553 18.12C148.553 19.4533 148.833 20.64 149.393 21.68C149.953 22.72 150.74 23.5333 151.753 24.12C152.767 24.7067 153.913 25 155.193 25C157.14 25 158.727 24.36 159.953 23.08C161.207 21.8 161.833 20.1467 161.833 18.12C161.833 16.0933 161.207 14.44 159.953 13.16C158.727 11.88 157.14 11.24 155.193 11.24C153.913 11.24 152.767 11.5333 151.753 12.12C150.74 12.7067 149.953 13.52 149.393 14.56C148.833 15.6 148.553 16.7867 148.553 18.12ZM171.349 -1.90735e-06H175.069V28H171.349V-1.90735e-06ZM189.321 28.28C187.268 28.28 185.708 27.7067 184.641 26.56C183.601 25.3867 183.081 23.68 183.081 21.44V11.48H179.201V8.24H183.081V2.92L186.761 2.52V8.24H192.761V11.48H186.761V21.44C186.761 22.5867 187.001 23.4533 187.481 24.04C187.961 24.6267 188.721 24.92 189.761 24.92C190.561 24.92 191.454 24.7067 192.441 24.28L193.521 27.36C192.134 27.9733 190.734 28.28 189.321 28.28ZM197.052 -1.90735e-06H200.772V10.8C202.425 8.85333 204.652 7.88 207.452 7.88C210.039 7.88 212.092 8.70667 213.612 10.36C215.159 12.0133 215.932 14.24 215.932 17.04V28H212.212V17.28C212.212 15.3867 211.745 13.92 210.812 12.88C209.879 11.84 208.572 11.32 206.892 11.32C205.105 11.32 203.639 11.9067 202.492 13.08C201.345 14.2267 200.772 15.6933 200.772 17.48V28H197.052V-1.90735e-06Z" fill="#DAEDFF"/>
</svg>
